<mxfile host="app.diagrams.net" modified="2023-12-02T13:48:47.213Z" agent="Mozilla/5.0 (Windows NT 10.0; Win64; x64) AppleWebKit/537.36 (KHTML, like Gecko) Chrome/119.0.0.0 Safari/537.36 Edg/119.0.0.0" etag="hEdD6QyRSJjdSfCCAKiT" version="22.1.5" type="device">
  <diagram id="vet9gW44qxWeZW9NbLCb" name="Page-1">
    <mxGraphModel dx="2393" dy="1285" grid="1" gridSize="10" guides="1" tooltips="1" connect="1" arrows="1" fold="1" page="1" pageScale="1" pageWidth="850" pageHeight="1100" math="0" shadow="0">
      <root>
        <mxCell id="0" />
        <mxCell id="1" parent="0" />
        <mxCell id="C7cFDkSAYV6iNaVtkmZo-1" value="&lt;font style=&quot;font-size: 16px;&quot;&gt;User&lt;/font&gt;" style="rounded=0;whiteSpace=wrap;html=1;" parent="1" vertex="1">
          <mxGeometry x="375" y="220" width="100" height="60" as="geometry" />
        </mxCell>
        <mxCell id="C7cFDkSAYV6iNaVtkmZo-3" value="ID" style="ellipse;whiteSpace=wrap;html=1;fontSize=16;" parent="1" vertex="1">
          <mxGeometry x="220" y="160" width="90" height="50" as="geometry" />
        </mxCell>
        <mxCell id="C7cFDkSAYV6iNaVtkmZo-4" value="Name" style="ellipse;whiteSpace=wrap;html=1;fontSize=16;" parent="1" vertex="1">
          <mxGeometry x="270" y="100" width="90" height="50" as="geometry" />
        </mxCell>
        <mxCell id="C7cFDkSAYV6iNaVtkmZo-5" value="&lt;div&gt;Email&lt;/div&gt;" style="ellipse;whiteSpace=wrap;html=1;fontSize=16;" parent="1" vertex="1">
          <mxGeometry x="370" y="80" width="90" height="50" as="geometry" />
        </mxCell>
        <mxCell id="C7cFDkSAYV6iNaVtkmZo-6" value="Password" style="ellipse;whiteSpace=wrap;html=1;fontSize=16;" parent="1" vertex="1">
          <mxGeometry x="470" y="90" width="90" height="50" as="geometry" />
        </mxCell>
        <mxCell id="C7cFDkSAYV6iNaVtkmZo-7" value="About" style="ellipse;whiteSpace=wrap;html=1;fontSize=16;" parent="1" vertex="1">
          <mxGeometry x="520" y="140" width="90" height="50" as="geometry" />
        </mxCell>
        <mxCell id="C7cFDkSAYV6iNaVtkmZo-9" value="" style="endArrow=none;html=1;rounded=0;fontSize=16;" parent="1" source="C7cFDkSAYV6iNaVtkmZo-3" edge="1">
          <mxGeometry width="50" height="50" relative="1" as="geometry">
            <mxPoint x="400" y="320" as="sourcePoint" />
            <mxPoint x="420" y="220" as="targetPoint" />
          </mxGeometry>
        </mxCell>
        <mxCell id="C7cFDkSAYV6iNaVtkmZo-12" value="" style="endArrow=none;html=1;rounded=0;fontSize=16;exitX=0.778;exitY=0.92;exitDx=0;exitDy=0;exitPerimeter=0;" parent="1" source="C7cFDkSAYV6iNaVtkmZo-4" edge="1">
          <mxGeometry width="50" height="50" relative="1" as="geometry">
            <mxPoint x="349.5707548026178" y="160.00221327691855" as="sourcePoint" />
            <mxPoint x="425" y="220" as="targetPoint" />
          </mxGeometry>
        </mxCell>
        <mxCell id="C7cFDkSAYV6iNaVtkmZo-13" value="" style="endArrow=none;html=1;rounded=0;fontSize=16;entryX=0.5;entryY=0;entryDx=0;entryDy=0;exitX=0.5;exitY=1;exitDx=0;exitDy=0;" parent="1" source="C7cFDkSAYV6iNaVtkmZo-5" target="C7cFDkSAYV6iNaVtkmZo-1" edge="1">
          <mxGeometry width="50" height="50" relative="1" as="geometry">
            <mxPoint x="326.5707548026178" y="214.57221327691855" as="sourcePoint" />
            <mxPoint x="437" y="240" as="targetPoint" />
          </mxGeometry>
        </mxCell>
        <mxCell id="C7cFDkSAYV6iNaVtkmZo-14" value="" style="endArrow=none;html=1;rounded=0;fontSize=16;entryX=0.5;entryY=0;entryDx=0;entryDy=0;exitX=0.256;exitY=1.02;exitDx=0;exitDy=0;exitPerimeter=0;" parent="1" source="C7cFDkSAYV6iNaVtkmZo-6" target="C7cFDkSAYV6iNaVtkmZo-1" edge="1">
          <mxGeometry width="50" height="50" relative="1" as="geometry">
            <mxPoint x="336.5707548026178" y="224.57221327691855" as="sourcePoint" />
            <mxPoint x="447" y="250" as="targetPoint" />
          </mxGeometry>
        </mxCell>
        <mxCell id="C7cFDkSAYV6iNaVtkmZo-15" value="" style="endArrow=none;html=1;rounded=0;fontSize=16;entryX=0.5;entryY=0;entryDx=0;entryDy=0;exitX=0.022;exitY=0.64;exitDx=0;exitDy=0;exitPerimeter=0;" parent="1" source="C7cFDkSAYV6iNaVtkmZo-7" target="C7cFDkSAYV6iNaVtkmZo-1" edge="1">
          <mxGeometry width="50" height="50" relative="1" as="geometry">
            <mxPoint x="346.5707548026178" y="234.57221327691855" as="sourcePoint" />
            <mxPoint x="457" y="260" as="targetPoint" />
          </mxGeometry>
        </mxCell>
        <mxCell id="C7cFDkSAYV6iNaVtkmZo-19" value="post_id" style="ellipse;whiteSpace=wrap;html=1;fontSize=16;" parent="1" vertex="1">
          <mxGeometry x="780" y="150" width="90" height="50" as="geometry" />
        </mxCell>
        <mxCell id="C7cFDkSAYV6iNaVtkmZo-20" value="title" style="ellipse;whiteSpace=wrap;html=1;fontSize=16;" parent="1" vertex="1">
          <mxGeometry x="820" y="100" width="90" height="50" as="geometry" />
        </mxCell>
        <mxCell id="C7cFDkSAYV6iNaVtkmZo-21" value="content" style="ellipse;whiteSpace=wrap;html=1;fontSize=16;" parent="1" vertex="1">
          <mxGeometry x="900" y="70" width="90" height="50" as="geometry" />
        </mxCell>
        <mxCell id="C7cFDkSAYV6iNaVtkmZo-22" value="user_id" style="ellipse;whiteSpace=wrap;html=1;fontSize=16;fillColor=#ffe6cc;strokeColor=#d79b00;" parent="1" vertex="1">
          <mxGeometry x="1070" y="110" width="90" height="50" as="geometry" />
        </mxCell>
        <mxCell id="C7cFDkSAYV6iNaVtkmZo-23" value="image" style="ellipse;whiteSpace=wrap;html=1;fontSize=16;" parent="1" vertex="1">
          <mxGeometry x="1000" y="70" width="90" height="50" as="geometry" />
        </mxCell>
        <mxCell id="C7cFDkSAYV6iNaVtkmZo-24" value="" style="endArrow=none;html=1;rounded=0;fontSize=16;exitX=1;exitY=0.5;exitDx=0;exitDy=0;entryX=0.5;entryY=0;entryDx=0;entryDy=0;" parent="1" source="C7cFDkSAYV6iNaVtkmZo-19" edge="1">
          <mxGeometry width="50" height="50" relative="1" as="geometry">
            <mxPoint x="900" y="320" as="sourcePoint" />
            <mxPoint x="1000" y="219.9999999999999" as="targetPoint" />
          </mxGeometry>
        </mxCell>
        <mxCell id="C7cFDkSAYV6iNaVtkmZo-25" value="" style="endArrow=none;html=1;rounded=0;fontSize=16;exitX=1;exitY=1;exitDx=0;exitDy=0;entryX=0.5;entryY=0;entryDx=0;entryDy=0;" parent="1" source="C7cFDkSAYV6iNaVtkmZo-20" edge="1">
          <mxGeometry width="50" height="50" relative="1" as="geometry">
            <mxPoint x="910" y="330" as="sourcePoint" />
            <mxPoint x="1000" y="219.9999999999999" as="targetPoint" />
          </mxGeometry>
        </mxCell>
        <mxCell id="C7cFDkSAYV6iNaVtkmZo-26" value="" style="endArrow=none;html=1;rounded=0;fontSize=16;exitX=0.5;exitY=1;exitDx=0;exitDy=0;entryX=0.5;entryY=0;entryDx=0;entryDy=0;" parent="1" source="C7cFDkSAYV6iNaVtkmZo-21" edge="1">
          <mxGeometry width="50" height="50" relative="1" as="geometry">
            <mxPoint x="920" y="340" as="sourcePoint" />
            <mxPoint x="1000" y="219.9999999999999" as="targetPoint" />
          </mxGeometry>
        </mxCell>
        <mxCell id="C7cFDkSAYV6iNaVtkmZo-27" value="" style="endArrow=none;html=1;rounded=0;fontSize=16;entryX=0.5;entryY=0;entryDx=0;entryDy=0;" parent="1" source="C7cFDkSAYV6iNaVtkmZo-23" edge="1">
          <mxGeometry width="50" height="50" relative="1" as="geometry">
            <mxPoint x="930" y="350" as="sourcePoint" />
            <mxPoint x="1000" y="219.9999999999999" as="targetPoint" />
          </mxGeometry>
        </mxCell>
        <mxCell id="C7cFDkSAYV6iNaVtkmZo-28" value="" style="endArrow=none;html=1;rounded=0;fontSize=16;exitX=0;exitY=1;exitDx=0;exitDy=0;entryX=0.5;entryY=0;entryDx=0;entryDy=0;" parent="1" source="C7cFDkSAYV6iNaVtkmZo-22" edge="1">
          <mxGeometry width="50" height="50" relative="1" as="geometry">
            <mxPoint x="940" y="360" as="sourcePoint" />
            <mxPoint x="1000" y="219.9999999999999" as="targetPoint" />
          </mxGeometry>
        </mxCell>
        <mxCell id="C7cFDkSAYV6iNaVtkmZo-29" value="has" style="rhombus;whiteSpace=wrap;html=1;fontSize=16;" parent="1" vertex="1">
          <mxGeometry x="670" y="350" width="80" height="80" as="geometry" />
        </mxCell>
        <mxCell id="C7cFDkSAYV6iNaVtkmZo-30" value="" style="endArrow=none;html=1;rounded=0;fontSize=16;exitX=0.5;exitY=1;exitDx=0;exitDy=0;entryX=0;entryY=0.5;entryDx=0;entryDy=0;" parent="1" source="C7cFDkSAYV6iNaVtkmZo-1" target="C7cFDkSAYV6iNaVtkmZo-29" edge="1">
          <mxGeometry width="50" height="50" relative="1" as="geometry">
            <mxPoint x="950" y="370" as="sourcePoint" />
            <mxPoint x="1000" y="320" as="targetPoint" />
          </mxGeometry>
        </mxCell>
        <mxCell id="C7cFDkSAYV6iNaVtkmZo-31" value="" style="endArrow=none;html=1;rounded=0;fontSize=16;exitX=0.5;exitY=1;exitDx=0;exitDy=0;entryX=1;entryY=0.5;entryDx=0;entryDy=0;" parent="1" target="C7cFDkSAYV6iNaVtkmZo-29" edge="1">
          <mxGeometry width="50" height="50" relative="1" as="geometry">
            <mxPoint x="1000" y="280" as="sourcePoint" />
            <mxPoint x="1010" y="330" as="targetPoint" />
          </mxGeometry>
        </mxCell>
        <mxCell id="C7cFDkSAYV6iNaVtkmZo-32" value="1" style="text;html=1;align=center;verticalAlign=middle;resizable=0;points=[];autosize=1;strokeColor=none;fillColor=none;fontSize=16;" parent="1" vertex="1">
          <mxGeometry x="560" y="320" width="30" height="30" as="geometry" />
        </mxCell>
        <mxCell id="C7cFDkSAYV6iNaVtkmZo-33" value="n" style="text;html=1;align=center;verticalAlign=middle;resizable=0;points=[];autosize=1;strokeColor=none;fillColor=none;fontSize=16;" parent="1" vertex="1">
          <mxGeometry x="835" y="315" width="30" height="30" as="geometry" />
        </mxCell>
        <mxCell id="C7cFDkSAYV6iNaVtkmZo-38" value="comment_id" style="ellipse;whiteSpace=wrap;html=1;fontSize=16;" parent="1" vertex="1">
          <mxGeometry x="760" y="560" width="100" height="60" as="geometry" />
        </mxCell>
        <mxCell id="C7cFDkSAYV6iNaVtkmZo-39" value="comment" style="ellipse;whiteSpace=wrap;html=1;fontSize=16;" parent="1" vertex="1">
          <mxGeometry x="835" y="500" width="100" height="60" as="geometry" />
        </mxCell>
        <mxCell id="C7cFDkSAYV6iNaVtkmZo-40" value="user_id" style="ellipse;whiteSpace=wrap;html=1;fontSize=16;fillColor=#ffe6cc;strokeColor=#d79b00;" parent="1" vertex="1">
          <mxGeometry x="950" y="480" width="100" height="60" as="geometry" />
        </mxCell>
        <mxCell id="C7cFDkSAYV6iNaVtkmZo-41" value="post_id" style="ellipse;whiteSpace=wrap;html=1;fontSize=16;fillColor=#dae8fc;strokeColor=#6c8ebf;" parent="1" vertex="1">
          <mxGeometry x="1045" y="530" width="100" height="60" as="geometry" />
        </mxCell>
        <mxCell id="C7cFDkSAYV6iNaVtkmZo-42" value="" style="endArrow=none;html=1;rounded=0;fontSize=16;exitX=1;exitY=1;exitDx=0;exitDy=0;entryX=0.5;entryY=0;entryDx=0;entryDy=0;" parent="1" source="C7cFDkSAYV6iNaVtkmZo-38" edge="1">
          <mxGeometry width="50" height="50" relative="1" as="geometry">
            <mxPoint x="950" y="490" as="sourcePoint" />
            <mxPoint x="970" y="640" as="targetPoint" />
          </mxGeometry>
        </mxCell>
        <mxCell id="C7cFDkSAYV6iNaVtkmZo-43" value="" style="endArrow=none;html=1;rounded=0;fontSize=16;exitX=1;exitY=1;exitDx=0;exitDy=0;entryX=0.5;entryY=0;entryDx=0;entryDy=0;" parent="1" source="C7cFDkSAYV6iNaVtkmZo-39" edge="1">
          <mxGeometry width="50" height="50" relative="1" as="geometry">
            <mxPoint x="855.5742512399511" y="621.081037771823" as="sourcePoint" />
            <mxPoint x="970" y="640" as="targetPoint" />
          </mxGeometry>
        </mxCell>
        <mxCell id="C7cFDkSAYV6iNaVtkmZo-44" value="" style="endArrow=none;html=1;rounded=0;fontSize=16;exitX=0.5;exitY=1;exitDx=0;exitDy=0;entryX=0.5;entryY=0;entryDx=0;entryDy=0;" parent="1" source="C7cFDkSAYV6iNaVtkmZo-40" edge="1">
          <mxGeometry width="50" height="50" relative="1" as="geometry">
            <mxPoint x="865.5742512399511" y="631.081037771823" as="sourcePoint" />
            <mxPoint x="970" y="640" as="targetPoint" />
          </mxGeometry>
        </mxCell>
        <mxCell id="C7cFDkSAYV6iNaVtkmZo-45" value="" style="endArrow=none;html=1;rounded=0;fontSize=16;exitX=0;exitY=1;exitDx=0;exitDy=0;entryX=0.5;entryY=0;entryDx=0;entryDy=0;" parent="1" source="C7cFDkSAYV6iNaVtkmZo-41" edge="1">
          <mxGeometry width="50" height="50" relative="1" as="geometry">
            <mxPoint x="875.5742512399511" y="641.081037771823" as="sourcePoint" />
            <mxPoint x="970" y="640" as="targetPoint" />
          </mxGeometry>
        </mxCell>
        <mxCell id="C7cFDkSAYV6iNaVtkmZo-46" value="can" style="rhombus;whiteSpace=wrap;html=1;fontSize=16;" parent="1" vertex="1">
          <mxGeometry x="460" y="500" width="80" height="80" as="geometry" />
        </mxCell>
        <mxCell id="C7cFDkSAYV6iNaVtkmZo-47" value="" style="endArrow=none;html=1;rounded=0;fontSize=16;entryX=0.5;entryY=1;entryDx=0;entryDy=0;exitX=0.5;exitY=0;exitDx=0;exitDy=0;" parent="1" source="C7cFDkSAYV6iNaVtkmZo-46" target="C7cFDkSAYV6iNaVtkmZo-1" edge="1">
          <mxGeometry width="50" height="50" relative="1" as="geometry">
            <mxPoint x="950" y="490" as="sourcePoint" />
            <mxPoint x="1000" y="440" as="targetPoint" />
          </mxGeometry>
        </mxCell>
        <mxCell id="C7cFDkSAYV6iNaVtkmZo-48" value="" style="endArrow=none;html=1;rounded=0;fontSize=16;entryX=0.5;entryY=1;entryDx=0;entryDy=0;exitX=0;exitY=0.5;exitDx=0;exitDy=0;" parent="1" target="C7cFDkSAYV6iNaVtkmZo-46" edge="1">
          <mxGeometry width="50" height="50" relative="1" as="geometry">
            <mxPoint x="920" y="670" as="sourcePoint" />
            <mxPoint x="1000" y="440" as="targetPoint" />
          </mxGeometry>
        </mxCell>
        <mxCell id="C7cFDkSAYV6iNaVtkmZo-49" value="1" style="text;html=1;align=center;verticalAlign=middle;resizable=0;points=[];autosize=1;strokeColor=none;fillColor=none;fontSize=16;" parent="1" vertex="1">
          <mxGeometry x="470" y="400" width="30" height="30" as="geometry" />
        </mxCell>
        <mxCell id="C7cFDkSAYV6iNaVtkmZo-50" value="n" style="text;html=1;align=center;verticalAlign=middle;resizable=0;points=[];autosize=1;strokeColor=none;fillColor=none;fontSize=16;" parent="1" vertex="1">
          <mxGeometry x="685" y="625" width="30" height="30" as="geometry" />
        </mxCell>
        <mxCell id="C7cFDkSAYV6iNaVtkmZo-51" value="have" style="rhombus;whiteSpace=wrap;html=1;fontSize=16;" parent="1" vertex="1">
          <mxGeometry x="1340" y="410" width="80" height="80" as="geometry" />
        </mxCell>
        <mxCell id="C7cFDkSAYV6iNaVtkmZo-52" value="" style="endArrow=none;html=1;rounded=0;fontSize=16;exitX=1;exitY=0.5;exitDx=0;exitDy=0;entryX=0;entryY=0.5;entryDx=0;entryDy=0;" parent="1" target="C7cFDkSAYV6iNaVtkmZo-51" edge="1">
          <mxGeometry width="50" height="50" relative="1" as="geometry">
            <mxPoint x="1050" y="249.9999999999999" as="sourcePoint" />
            <mxPoint x="1000" y="440" as="targetPoint" />
          </mxGeometry>
        </mxCell>
        <mxCell id="C7cFDkSAYV6iNaVtkmZo-53" value="" style="endArrow=none;html=1;rounded=0;fontSize=16;exitX=0.5;exitY=1;exitDx=0;exitDy=0;entryX=1;entryY=0.5;entryDx=0;entryDy=0;" parent="1" source="C7cFDkSAYV6iNaVtkmZo-51" edge="1">
          <mxGeometry width="50" height="50" relative="1" as="geometry">
            <mxPoint x="950" y="490" as="sourcePoint" />
            <mxPoint x="1020" y="670" as="targetPoint" />
          </mxGeometry>
        </mxCell>
        <mxCell id="C7cFDkSAYV6iNaVtkmZo-54" value="1" style="text;html=1;align=center;verticalAlign=middle;resizable=0;points=[];autosize=1;strokeColor=none;fillColor=none;fontSize=16;" parent="1" vertex="1">
          <mxGeometry x="1200" y="330" width="30" height="30" as="geometry" />
        </mxCell>
        <mxCell id="C7cFDkSAYV6iNaVtkmZo-55" value="n" style="text;html=1;align=center;verticalAlign=middle;resizable=0;points=[];autosize=1;strokeColor=none;fillColor=none;fontSize=16;" parent="1" vertex="1">
          <mxGeometry x="1185" y="585" width="30" height="30" as="geometry" />
        </mxCell>
        <mxCell id="C7cFDkSAYV6iNaVtkmZo-56" value="&lt;font style=&quot;font-size: 16px;&quot;&gt;Category&lt;/font&gt;" style="rounded=0;whiteSpace=wrap;html=1;" parent="1" vertex="1">
          <mxGeometry x="1450" y="220" width="100" height="60" as="geometry" />
        </mxCell>
        <mxCell id="C7cFDkSAYV6iNaVtkmZo-57" value="title" style="ellipse;whiteSpace=wrap;html=1;fontSize=16;" parent="1" vertex="1">
          <mxGeometry x="1550" y="110" width="90" height="50" as="geometry" />
        </mxCell>
        <mxCell id="C7cFDkSAYV6iNaVtkmZo-58" value="category_id" style="ellipse;whiteSpace=wrap;html=1;fontSize=16;" parent="1" vertex="1">
          <mxGeometry x="1400" y="110" width="90" height="50" as="geometry" />
        </mxCell>
        <mxCell id="C7cFDkSAYV6iNaVtkmZo-59" value="" style="endArrow=none;html=1;rounded=0;fontSize=16;exitX=0.5;exitY=1;exitDx=0;exitDy=0;entryX=0.5;entryY=0;entryDx=0;entryDy=0;" parent="1" source="C7cFDkSAYV6iNaVtkmZo-58" target="C7cFDkSAYV6iNaVtkmZo-56" edge="1">
          <mxGeometry width="50" height="50" relative="1" as="geometry">
            <mxPoint x="1310" y="490" as="sourcePoint" />
            <mxPoint x="1360" y="440" as="targetPoint" />
          </mxGeometry>
        </mxCell>
        <mxCell id="C7cFDkSAYV6iNaVtkmZo-61" value="" style="endArrow=none;html=1;rounded=0;fontSize=16;exitX=0.5;exitY=1;exitDx=0;exitDy=0;entryX=0.5;entryY=0;entryDx=0;entryDy=0;" parent="1" source="C7cFDkSAYV6iNaVtkmZo-57" target="C7cFDkSAYV6iNaVtkmZo-56" edge="1">
          <mxGeometry width="50" height="50" relative="1" as="geometry">
            <mxPoint x="1465" y="180" as="sourcePoint" />
            <mxPoint x="1520" y="240" as="targetPoint" />
          </mxGeometry>
        </mxCell>
        <mxCell id="C7cFDkSAYV6iNaVtkmZo-62" value="in" style="rhombus;whiteSpace=wrap;html=1;fontSize=16;" parent="1" vertex="1">
          <mxGeometry x="1235" y="210" width="80" height="80" as="geometry" />
        </mxCell>
        <mxCell id="C7cFDkSAYV6iNaVtkmZo-63" value="" style="endArrow=none;html=1;rounded=0;fontSize=16;exitX=1;exitY=0.5;exitDx=0;exitDy=0;entryX=0;entryY=0.5;entryDx=0;entryDy=0;" parent="1" target="C7cFDkSAYV6iNaVtkmZo-62" edge="1">
          <mxGeometry width="50" height="50" relative="1" as="geometry">
            <mxPoint x="1050" y="249.9999999999999" as="sourcePoint" />
            <mxPoint x="1360" y="440" as="targetPoint" />
          </mxGeometry>
        </mxCell>
        <mxCell id="C7cFDkSAYV6iNaVtkmZo-64" value="" style="endArrow=none;html=1;rounded=0;fontSize=16;exitX=1;exitY=0.5;exitDx=0;exitDy=0;entryX=0;entryY=0.5;entryDx=0;entryDy=0;" parent="1" source="C7cFDkSAYV6iNaVtkmZo-62" target="C7cFDkSAYV6iNaVtkmZo-56" edge="1">
          <mxGeometry width="50" height="50" relative="1" as="geometry">
            <mxPoint x="1310" y="490" as="sourcePoint" />
            <mxPoint x="1360" y="440" as="targetPoint" />
          </mxGeometry>
        </mxCell>
        <mxCell id="C7cFDkSAYV6iNaVtkmZo-65" value="category_id" style="ellipse;whiteSpace=wrap;html=1;fontSize=16;fillColor=#d80073;fontColor=#ffffff;strokeColor=#A50040;" parent="1" vertex="1">
          <mxGeometry x="1110" y="160" width="90" height="50" as="geometry" />
        </mxCell>
        <mxCell id="C7cFDkSAYV6iNaVtkmZo-68" value="" style="endArrow=none;html=1;rounded=0;fontSize=16;exitX=0.5;exitY=0;exitDx=0;exitDy=0;entryX=0;entryY=0.5;entryDx=0;entryDy=0;" parent="1" target="C7cFDkSAYV6iNaVtkmZo-65" edge="1">
          <mxGeometry width="50" height="50" relative="1" as="geometry">
            <mxPoint x="1000" y="219.9999999999999" as="sourcePoint" />
            <mxPoint x="1145" y="270" as="targetPoint" />
          </mxGeometry>
        </mxCell>
        <mxCell id="C7cFDkSAYV6iNaVtkmZo-69" value="1" style="text;html=1;align=center;verticalAlign=middle;resizable=0;points=[];autosize=1;strokeColor=none;fillColor=none;fontSize=16;" parent="1" vertex="1">
          <mxGeometry x="1145" y="220" width="30" height="30" as="geometry" />
        </mxCell>
        <mxCell id="C7cFDkSAYV6iNaVtkmZo-71" value="n" style="text;html=1;align=center;verticalAlign=middle;resizable=0;points=[];autosize=1;strokeColor=none;fillColor=none;fontSize=16;" parent="1" vertex="1">
          <mxGeometry x="1365" y="225" width="30" height="30" as="geometry" />
        </mxCell>
        <mxCell id="zjzdLIlmJOZqjZmBVrab-2" value="" style="rounded=0;whiteSpace=wrap;html=1;fontStyle=0" vertex="1" parent="1">
          <mxGeometry x="940" y="220" width="110" height="60" as="geometry" />
        </mxCell>
        <mxCell id="zjzdLIlmJOZqjZmBVrab-3" value="&lt;h5 style=&quot;font-size: 11px;&quot;&gt;Post&lt;/h5&gt;" style="rounded=0;whiteSpace=wrap;html=1;fontColor=#121212;fontStyle=2;align=center;" vertex="1" parent="1">
          <mxGeometry x="950" y="230" width="90" height="40" as="geometry" />
        </mxCell>
        <mxCell id="zjzdLIlmJOZqjZmBVrab-4" value="" style="rounded=0;whiteSpace=wrap;html=1;" vertex="1" parent="1">
          <mxGeometry x="920" y="640" width="100" height="60" as="geometry" />
        </mxCell>
        <mxCell id="zjzdLIlmJOZqjZmBVrab-5" value="Comment" style="rounded=0;whiteSpace=wrap;html=1;fontColor=#121212;" vertex="1" parent="1">
          <mxGeometry x="930" y="650" width="80" height="40" as="geometry" />
        </mxCell>
        <mxCell id="zjzdLIlmJOZqjZmBVrab-9" value="" style="endArrow=none;html=1;rounded=0;" edge="1" parent="1">
          <mxGeometry width="50" height="50" relative="1" as="geometry">
            <mxPoint x="240" y="200" as="sourcePoint" />
            <mxPoint x="290" y="200" as="targetPoint" />
          </mxGeometry>
        </mxCell>
        <mxCell id="zjzdLIlmJOZqjZmBVrab-12" value="" style="endArrow=none;html=1;rounded=0;exitX=0.222;exitY=0.8;exitDx=0;exitDy=0;exitPerimeter=0;" edge="1" parent="1" source="C7cFDkSAYV6iNaVtkmZo-19">
          <mxGeometry width="50" height="50" relative="1" as="geometry">
            <mxPoint x="800" y="240" as="sourcePoint" />
            <mxPoint x="850" y="190" as="targetPoint" />
          </mxGeometry>
        </mxCell>
        <mxCell id="zjzdLIlmJOZqjZmBVrab-15" value="" style="endArrow=none;html=1;rounded=0;exitX=0.2;exitY=0.667;exitDx=0;exitDy=0;exitPerimeter=0;" edge="1" parent="1" source="C7cFDkSAYV6iNaVtkmZo-38">
          <mxGeometry width="50" height="50" relative="1" as="geometry">
            <mxPoint x="790" y="650" as="sourcePoint" />
            <mxPoint x="840" y="600" as="targetPoint" />
          </mxGeometry>
        </mxCell>
        <mxCell id="zjzdLIlmJOZqjZmBVrab-21" value="" style="endArrow=none;html=1;rounded=0;exitX=0.222;exitY=0.8;exitDx=0;exitDy=0;exitPerimeter=0;" edge="1" parent="1" source="C7cFDkSAYV6iNaVtkmZo-58">
          <mxGeometry width="50" height="50" relative="1" as="geometry">
            <mxPoint x="1420" y="200" as="sourcePoint" />
            <mxPoint x="1470" y="150" as="targetPoint" />
          </mxGeometry>
        </mxCell>
      </root>
    </mxGraphModel>
  </diagram>
</mxfile>
